# xmcd
#
# Track frame offsets: 
#        150
#        17662
#        33160
#
# Disc length: 667 seconds
#
# Revision: 0
# Processed by: cddbd v1.4b42PL1 Copyright (c) Steve Scherf et al.
# Submitted via: ExactAudioCopy v0.90a11
#
DISCID=16029903
DTITLE=Terry Hall - Ballard of a Landlord
DYEAR=1900
DGENRE=
TTITLE0=Ballard of a Landlord
TTITLE1=Working Class Hero
TTITLE2=Ballard of a Landlord (acoustic)
EXTD=
EXTT0=
EXTT1=
EXTT2=
PLAYORDER=
